<svg width="59" height="53" viewBox="0 0 59 53" fill="none" xmlns="http://www.w3.org/2000/svg">
  <mask id="path-1-inside-1_33_9948" fill="white">
    <path fill-rule="evenodd" clip-rule="evenodd" d="M33.1316 52.3127H49.6973C49.6973 47.4975 53.6009 43.5939 58.4161 43.5939V26.1563V8.71859C53.6009 8.71859 49.6973 4.81503 49.6973 -0.000244141H25.2846V0.00106502H8.71883C8.71883 4.81634 4.81527 8.7199 0 8.7199V26.1576V43.5952C4.81527 43.5952 8.71883 47.4988 8.71883 52.3141H33.1316V52.3127Z" />
  </mask>
  <path d="M33.1316 52.3127V51.3127H32.1316V52.3127H33.1316ZM49.6973 52.3127V53.3127H50.6973V52.3127H49.6973ZM58.4161 43.5939V44.5939H59.4161V43.5939H58.4161ZM58.4161 8.71859H59.4161V7.71859L58.4161 7.71859V8.71859ZM49.6973 -0.000244141L50.6973 -0.000244933V-1.00024H49.6973V-0.000244141ZM25.2846 -0.000244141V-1.00024H24.2846V-0.000244141H25.2846ZM25.2846 0.00106502V1.00107H26.2846V0.00106502H25.2846ZM8.71883 0.00106502V-0.998935H7.71883L7.71883 0.00106422L8.71883 0.00106502ZM0 8.7199V7.7199H-1V8.7199H0ZM0 43.5952H-1V44.5952H0V43.5952ZM8.71883 52.3141H7.71883L7.71883 53.3141H8.71883V52.3141ZM33.1316 52.3141V53.3141H34.1316V52.3141H33.1316ZM33.1316 53.3127H49.6973V51.3127H33.1316V53.3127ZM50.6973 52.3127C50.6973 48.0498 54.1531 44.5939 58.4161 44.5939V42.5939C53.0486 42.5939 48.6973 46.9452 48.6973 52.3127H50.6973ZM59.4161 43.5939V26.1563H57.4161V43.5939H59.4161ZM59.4161 26.1563V8.71859H57.4161V26.1563H59.4161ZM58.4161 7.71859C54.1531 7.71859 50.6973 4.26275 50.6973 -0.000244933L48.6973 -0.000243348C48.6973 5.36732 53.0486 9.71859 58.4161 9.71859V7.71859ZM49.6973 -1.00024H25.2846V0.999756H49.6973V-1.00024ZM24.2846 -0.000244141V0.00106502H26.2846V-0.000244141H24.2846ZM25.2846 -0.998935H8.71883V1.00107H25.2846V-0.998935ZM7.71883 0.00106422C7.71883 4.26406 4.26299 7.7199 0 7.7199V9.7199C5.36756 9.7199 9.71883 5.36862 9.71883 0.00106581L7.71883 0.00106422ZM-1 8.7199V26.1576H1V8.7199H-1ZM-1 26.1576V43.5952H1V26.1576H-1ZM0 44.5952C4.26299 44.5952 7.71883 48.0511 7.71883 52.3141H9.71883C9.71883 46.9465 5.36756 42.5952 0 42.5952V44.5952ZM8.71883 53.3141H33.1316V51.3141H8.71883V53.3141ZM34.1316 52.3141V52.3127H32.1316V52.3141H34.1316Z" fill="#D68B4A" mask="url(#path-1-inside-1_33_9948)" />
</svg>