<svg width="360" height="473" viewBox="0 0 360 473" fill="none" xmlns="http://www.w3.org/2000/svg">
  <mask id="path-1-inside-1_1_487" fill="white">
    <path d="M340.001 0C342.463 9.84827 350.152 17.5379 360.001 20V473H0.000595093L0.000674398 20C10.5238 18.8307 18.8309 10.5232 20.0002 0L340.001 0Z" />
  </mask>
  <path d="M340.001 0C342.463 9.84827 350.152 17.5379 360.001 20V473H0.000595093L0.000674398 20C10.5238 18.8307 18.8309 10.5232 20.0002 0L340.001 0Z" fill="url(#paint0_linear_1_487)" />
  <path d="M360.001 473V474H361.001V473H360.001ZM0.000595093 473H-0.999405L-0.999405 474H0.000595082L0.000595093 473ZM360.001 472H0.000595104L0.000595082 474H360.001V472ZM1.0006 473L1.00067 20H-0.999326L-0.999405 473H1.0006ZM20.0002 1H340.001V-1H20.0002V1ZM359.001 20V473H361.001V20H359.001ZM0.111109 20.9939C11.0991 19.773 19.7732 11.0984 20.9941 0.110432L19.0063 -0.110432C17.8887 9.94791 9.94852 17.8885 -0.10976 19.0061L0.111109 20.9939ZM339.03 0.242536C341.582 10.4491 349.551 18.4185 359.758 20.9701L360.243 19.0299C350.753 16.6573 343.343 9.24745 340.971 -0.242536L339.03 0.242536Z" fill="#0142D0" mask="url(#path-1-inside-1_1_487)" />
  <defs>
    <linearGradient id="paint0_linear_1_487" x1="180" y1="292.5" x2="180.001" y2="473" gradientUnits="userSpaceOnUse">
      <stop stop-color="white" />
      <stop offset="1" stop-color="white" stop-opacity="0.64" />
    </linearGradient>
  </defs>
</svg>