<svg width="22" height="22" viewBox="0 0 22 22" fill="none" xmlns="http://www.w3.org/2000/svg">
  <path d="M8.81842 14.667L10.1934 16.042L13.1726 13.292" stroke="#0142D0" stroke-width="1.5" stroke-linecap="round" stroke-linejoin="round" />
  <path d="M8.07631 1.8335L4.75798 5.161" stroke="#0142D0" stroke-width="1.5" stroke-miterlimit="10" stroke-linecap="round" stroke-linejoin="round" />
  <path d="M13.9246 1.8335L17.243 5.161" stroke="#0142D0" stroke-width="1.5" stroke-miterlimit="10" stroke-linecap="round" stroke-linejoin="round" />
  <path d="M1.83342 7.19613C1.83342 5.50029 2.74092 5.36279 3.86842 5.36279H18.1318C19.2593 5.36279 20.1668 5.50029 20.1668 7.19613C20.1668 9.16696 19.2593 9.02946 18.1318 9.02946H3.86842C2.74092 9.02946 1.83342 9.16696 1.83342 7.19613Z" stroke="#0142D0" stroke-width="1.5" />
  <path d="M3.20842 9.16699L4.50092 17.087C4.79425 18.8653 5.50009 20.167 8.12175 20.167H13.6493C16.5001 20.167 16.9218 18.9203 17.2518 17.197L18.7918 9.16699" stroke="#0142D0" stroke-width="1.5" stroke-linecap="round" />
</svg>