<svg width="1920" height="6469" viewBox="0 0 1920 6469" fill="none" xmlns="http://www.w3.org/2000/svg">
<rect width="1920" height="3586" transform="matrix(1 0 0 -1 0 6469)" fill="url(#paint0_linear_2001_1520)"/>
<rect y="1501" width="1920" height="2306" fill="url(#paint1_linear_2001_1520)"/>
<g filter="url(#filter0_f_2001_1520)">
<path d="M1640.38 868.136C1640.38 759.087 1870.43 665.768 1937.94 634H2235L2184.49 1732L-227 1685.72V1127.01C-142.649 1065.31 34.353 921.195 67.5598 838.354C109.068 734.802 115.07 906.624 67.5598 1017.97C20.05 1129.31 153.577 1066.99 177.582 1127.01C196.786 1175.03 831.882 1139.69 943.738 1127.01C1031.09 1114.34 1072.26 1031.62 1212.29 996.43C1387.33 952.444 1640.38 1042.62 1640.38 868.136Z" fill="url(#paint2_linear_2001_1520)"/>
<path d="M1640.38 868.136C1640.38 759.087 1870.43 665.768 1937.94 634H2235L2184.49 1732L-227 1685.72V1127.01C-142.649 1065.31 34.353 921.195 67.5598 838.354C109.068 734.802 115.07 906.624 67.5598 1017.97C20.05 1129.31 153.577 1066.99 177.582 1127.01C196.786 1175.03 831.882 1139.69 943.738 1127.01C1031.09 1114.34 1072.26 1031.62 1212.29 996.43C1387.33 952.444 1640.38 1042.62 1640.38 868.136Z" fill="url(#paint3_linear_2001_1520)"/>
</g>
<rect y="-2" width="1920" height="1149" fill="url(#paint4_linear_2001_1520)"/>
<defs>
<filter id="filter0_f_2001_1520" x="-427" y="434" width="2862" height="1498" filterUnits="userSpaceOnUse" color-interpolation-filters="sRGB">
<feFlood flood-opacity="0" result="BackgroundImageFix"/>
<feBlend mode="normal" in="SourceGraphic" in2="BackgroundImageFix" result="shape"/>
<feGaussianBlur stdDeviation="100" result="effect1_foregroundBlur_2001_1520"/>
</filter>
<linearGradient id="paint0_linear_2001_1520" x1="960" y1="67.939" x2="960" y2="3586" gradientUnits="userSpaceOnUse">
<stop stop-color="#0142D0"/>
<stop offset="1" stop-color="white" stop-opacity="0"/>
</linearGradient>
<linearGradient id="paint1_linear_2001_1520" x1="960" y1="1501" x2="960" y2="3807" gradientUnits="userSpaceOnUse">
<stop stop-color="#0142D0"/>
<stop offset="1" stop-color="#588DFF" stop-opacity="0"/>
</linearGradient>
<linearGradient id="paint2_linear_2001_1520" x1="1334.32" y1="1321.75" x2="1085.86" y2="995.641" gradientUnits="userSpaceOnUse">
<stop stop-color="#0142D0"/>
<stop offset="1" stop-color="#2382E6" stop-opacity="0"/>
</linearGradient>
<linearGradient id="paint3_linear_2001_1520" x1="350.117" y1="1324.04" x2="324.477" y2="1012.07" gradientUnits="userSpaceOnUse">
<stop stop-color="#0142D0"/>
<stop offset="1" stop-color="#B1EBFE"/>
</linearGradient>
<linearGradient id="paint4_linear_2001_1520" x1="960" y1="-2" x2="960" y2="837.698" gradientUnits="userSpaceOnUse">
<stop stop-color="#0142D0"/>
<stop offset="1" stop-color="white" stop-opacity="0"/>
</linearGradient>
</defs>
</svg>
