<svg width="427" height="437" viewBox="0 0 427 437" fill="none" xmlns="http://www.w3.org/2000/svg" xmlns:xlink="http://www.w3.org/1999/xlink">
<mask id="mask0_1_367" style="mask-type:alpha" maskUnits="userSpaceOnUse" x="0" y="0" width="427" height="437">
<path fill-rule="evenodd" clip-rule="evenodd" d="M0.773932 365.232L29.8351 365.232C43.1861 365.232 54.9646 373.969 58.8394 386.745C69.631 382.494 81.8994 384.719 90.5101 392.49L97.9847 399.236L108.095 396.735C118.593 394.138 129.493 399.144 134.364 408.8C138.094 416.194 145.485 421.037 153.753 421.506L176.107 422.774C184.82 423.269 193.33 425.597 201.081 429.608L213.461 436.014L213.461 436.015L213.462 436.015L213.463 436.015L213.463 436.014L225.844 429.608C233.595 425.597 242.105 423.269 250.818 422.774L273.171 421.506C281.44 421.037 288.83 416.194 292.56 408.8C297.431 399.144 308.331 394.138 318.83 396.735L328.94 399.236L336.414 392.49C345.025 384.719 357.294 382.493 368.085 386.745C371.96 373.969 383.738 365.232 397.089 365.232L426.151 365.232L426.151 113.328L426.149 113.328L426.149 71.0914L397.088 71.0914C383.737 71.0914 371.959 62.3552 368.084 49.5789C357.292 53.8302 345.024 51.6046 336.413 43.8335L328.939 37.0878L318.829 39.5886C308.33 42.1856 297.43 37.1796 292.559 27.5235C288.829 20.1296 281.439 15.2864 273.17 14.8173L250.817 13.5492C242.104 13.055 233.593 10.7263 225.843 6.71568L213.462 0.309123L213.462 0.308391L213.461 0.308757L213.46 0.30836L213.46 0.309154L201.079 6.71571C193.329 10.7264 184.818 13.055 176.105 13.5493L153.752 14.8174C145.483 15.2864 138.093 20.1296 134.363 27.5236C129.492 37.1796 118.592 42.1856 108.093 39.5886L97.9832 37.0878L90.5086 43.8335C81.8979 51.6046 69.6296 53.8302 58.8379 49.5789C54.9632 62.3552 43.1846 71.0914 29.8337 71.0914L0.77246 71.0914L0.77244 322.995L0.773935 322.995L0.773932 365.232Z" fill="#0142D0"/>
</mask>
<g mask="url(#mask0_1_367)">
<rect x="-44.8774" y="-6.75024" width="475.767" height="492.947" fill="url(#pattern0)"/>
</g>
</svg>
